<mxfile host="Electron" modified="2023-04-04T12:14:14.107Z" agent="Mozilla/5.0 (Macintosh; Intel Mac OS X 10_15_7) AppleWebKit/537.36 (KHTML, like Gecko) draw.io/21.1.2 Chrome/106.0.5249.199 Electron/21.4.3 Safari/537.36" etag="mZWZec7924Ip2Z-WRic8" version="21.1.2" type="device">
  <diagram name="Before_and_After" id="-HM-OosM7QlpeyuSYqsR">
    <mxGraphModel dx="1306" dy="894" grid="1" gridSize="10" guides="1" tooltips="1" connect="1" arrows="1" fold="1" page="1" pageScale="1" pageWidth="827" pageHeight="1169" math="0" shadow="0">
      <root>
        <mxCell id="0" />
        <mxCell id="1" parent="0" />
        <mxCell id="jjvaqmho2UHqBmuWb2lH-7" value="" style="rounded=0;whiteSpace=wrap;html=1;fillColor=none;" vertex="1" parent="1">
          <mxGeometry x="130" y="80" width="350" height="240" as="geometry" />
        </mxCell>
        <mxCell id="jjvaqmho2UHqBmuWb2lH-1" value="" style="sketch=0;points=[[0,0,0],[0.25,0,0],[0.5,0,0],[0.75,0,0],[1,0,0],[0,1,0],[0.25,1,0],[0.5,1,0],[0.75,1,0],[1,1,0],[0,0.25,0],[0,0.5,0],[0,0.75,0],[1,0.25,0],[1,0.5,0],[1,0.75,0]];outlineConnect=0;fontColor=#232F3E;gradientColor=#FF4F8B;gradientDirection=north;fillColor=#BC1356;strokeColor=#ffffff;dashed=0;verticalLabelPosition=bottom;verticalAlign=top;align=center;html=1;fontSize=12;fontStyle=0;aspect=fixed;shape=mxgraph.aws4.resourceIcon;resIcon=mxgraph.aws4.eventbridge;" vertex="1" parent="1">
          <mxGeometry x="130" y="80" width="38" height="38" as="geometry" />
        </mxCell>
        <mxCell id="jjvaqmho2UHqBmuWb2lH-11" style="edgeStyle=orthogonalEdgeStyle;rounded=0;orthogonalLoop=1;jettySize=auto;html=1;" edge="1" parent="1" source="jjvaqmho2UHqBmuWb2lH-2" target="jjvaqmho2UHqBmuWb2lH-4">
          <mxGeometry relative="1" as="geometry" />
        </mxCell>
        <mxCell id="jjvaqmho2UHqBmuWb2lH-2" value="Rule1" style="sketch=0;outlineConnect=0;fontColor=#232F3E;gradientColor=none;fillColor=#B0084D;strokeColor=none;dashed=0;verticalLabelPosition=bottom;verticalAlign=top;align=center;html=1;fontSize=12;fontStyle=0;aspect=fixed;pointerEvents=1;shape=mxgraph.aws4.rule_3;" vertex="1" parent="1">
          <mxGeometry x="336" y="100" width="78" height="68" as="geometry" />
        </mxCell>
        <mxCell id="jjvaqmho2UHqBmuWb2lH-8" style="edgeStyle=orthogonalEdgeStyle;rounded=0;orthogonalLoop=1;jettySize=auto;html=1;" edge="1" parent="1" source="jjvaqmho2UHqBmuWb2lH-3" target="jjvaqmho2UHqBmuWb2lH-2">
          <mxGeometry relative="1" as="geometry" />
        </mxCell>
        <mxCell id="jjvaqmho2UHqBmuWb2lH-9" style="edgeStyle=orthogonalEdgeStyle;rounded=0;orthogonalLoop=1;jettySize=auto;html=1;" edge="1" parent="1" source="jjvaqmho2UHqBmuWb2lH-3" target="jjvaqmho2UHqBmuWb2lH-5">
          <mxGeometry relative="1" as="geometry" />
        </mxCell>
        <mxCell id="jjvaqmho2UHqBmuWb2lH-3" value="EventBus" style="sketch=0;outlineConnect=0;fontColor=#232F3E;gradientColor=none;fillColor=#B0084D;strokeColor=none;dashed=0;verticalLabelPosition=bottom;verticalAlign=top;align=center;html=1;fontSize=12;fontStyle=0;aspect=fixed;pointerEvents=1;shape=mxgraph.aws4.eventbridge_default_event_bus_resource;" vertex="1" parent="1">
          <mxGeometry x="190" y="160" width="78" height="53" as="geometry" />
        </mxCell>
        <mxCell id="jjvaqmho2UHqBmuWb2lH-4" value="Rule1 Handler" style="sketch=0;outlineConnect=0;fontColor=#232F3E;gradientColor=none;fillColor=#D45B07;strokeColor=none;dashed=0;verticalLabelPosition=bottom;verticalAlign=top;align=center;html=1;fontSize=12;fontStyle=0;aspect=fixed;pointerEvents=1;shape=mxgraph.aws4.lambda_function;" vertex="1" parent="1">
          <mxGeometry x="530" y="110" width="48" height="48" as="geometry" />
        </mxCell>
        <mxCell id="jjvaqmho2UHqBmuWb2lH-10" style="edgeStyle=orthogonalEdgeStyle;rounded=0;orthogonalLoop=1;jettySize=auto;html=1;" edge="1" parent="1" source="jjvaqmho2UHqBmuWb2lH-5" target="jjvaqmho2UHqBmuWb2lH-6">
          <mxGeometry relative="1" as="geometry" />
        </mxCell>
        <mxCell id="jjvaqmho2UHqBmuWb2lH-5" value="Rule2" style="sketch=0;outlineConnect=0;fontColor=#232F3E;gradientColor=none;fillColor=#B0084D;strokeColor=none;dashed=0;verticalLabelPosition=bottom;verticalAlign=top;align=center;html=1;fontSize=12;fontStyle=0;aspect=fixed;pointerEvents=1;shape=mxgraph.aws4.rule_3;" vertex="1" parent="1">
          <mxGeometry x="336" y="210" width="78" height="68" as="geometry" />
        </mxCell>
        <mxCell id="jjvaqmho2UHqBmuWb2lH-6" value="Rule2 Handler" style="sketch=0;outlineConnect=0;fontColor=#232F3E;gradientColor=none;fillColor=#D45B07;strokeColor=none;dashed=0;verticalLabelPosition=bottom;verticalAlign=top;align=center;html=1;fontSize=12;fontStyle=0;aspect=fixed;pointerEvents=1;shape=mxgraph.aws4.lambda_function;" vertex="1" parent="1">
          <mxGeometry x="530" y="220" width="48" height="48" as="geometry" />
        </mxCell>
        <mxCell id="jjvaqmho2UHqBmuWb2lH-12" value="" style="rounded=0;whiteSpace=wrap;html=1;fillColor=none;" vertex="1" parent="1">
          <mxGeometry x="130" y="420" width="350" height="240" as="geometry" />
        </mxCell>
        <mxCell id="jjvaqmho2UHqBmuWb2lH-13" value="" style="sketch=0;points=[[0,0,0],[0.25,0,0],[0.5,0,0],[0.75,0,0],[1,0,0],[0,1,0],[0.25,1,0],[0.5,1,0],[0.75,1,0],[1,1,0],[0,0.25,0],[0,0.5,0],[0,0.75,0],[1,0.25,0],[1,0.5,0],[1,0.75,0]];outlineConnect=0;fontColor=#232F3E;gradientColor=#FF4F8B;gradientDirection=north;fillColor=#BC1356;strokeColor=#ffffff;dashed=0;verticalLabelPosition=bottom;verticalAlign=top;align=center;html=1;fontSize=12;fontStyle=0;aspect=fixed;shape=mxgraph.aws4.resourceIcon;resIcon=mxgraph.aws4.eventbridge;" vertex="1" parent="1">
          <mxGeometry x="130" y="420" width="38" height="38" as="geometry" />
        </mxCell>
        <mxCell id="jjvaqmho2UHqBmuWb2lH-14" style="edgeStyle=orthogonalEdgeStyle;rounded=0;orthogonalLoop=1;jettySize=auto;html=1;" edge="1" parent="1" source="jjvaqmho2UHqBmuWb2lH-15" target="jjvaqmho2UHqBmuWb2lH-19">
          <mxGeometry relative="1" as="geometry" />
        </mxCell>
        <mxCell id="jjvaqmho2UHqBmuWb2lH-15" value="Rule(no logic)" style="sketch=0;outlineConnect=0;fontColor=#232F3E;gradientColor=none;fillColor=#B0084D;strokeColor=none;dashed=0;verticalLabelPosition=bottom;verticalAlign=top;align=center;html=1;fontSize=12;fontStyle=0;aspect=fixed;pointerEvents=1;shape=mxgraph.aws4.rule_3;" vertex="1" parent="1">
          <mxGeometry x="336" y="492.5" width="78" height="68" as="geometry" />
        </mxCell>
        <mxCell id="jjvaqmho2UHqBmuWb2lH-16" style="edgeStyle=orthogonalEdgeStyle;rounded=0;orthogonalLoop=1;jettySize=auto;html=1;" edge="1" parent="1" source="jjvaqmho2UHqBmuWb2lH-18" target="jjvaqmho2UHqBmuWb2lH-15">
          <mxGeometry relative="1" as="geometry" />
        </mxCell>
        <mxCell id="jjvaqmho2UHqBmuWb2lH-18" value="EventBus" style="sketch=0;outlineConnect=0;fontColor=#232F3E;gradientColor=none;fillColor=#B0084D;strokeColor=none;dashed=0;verticalLabelPosition=bottom;verticalAlign=top;align=center;html=1;fontSize=12;fontStyle=0;aspect=fixed;pointerEvents=1;shape=mxgraph.aws4.eventbridge_default_event_bus_resource;" vertex="1" parent="1">
          <mxGeometry x="190" y="500" width="78" height="53" as="geometry" />
        </mxCell>
        <mxCell id="jjvaqmho2UHqBmuWb2lH-24" style="rounded=0;orthogonalLoop=1;jettySize=auto;html=1;" edge="1" parent="1" source="jjvaqmho2UHqBmuWb2lH-19" target="jjvaqmho2UHqBmuWb2lH-23">
          <mxGeometry relative="1" as="geometry" />
        </mxCell>
        <mxCell id="jjvaqmho2UHqBmuWb2lH-25" style="rounded=0;orthogonalLoop=1;jettySize=auto;html=1;" edge="1" parent="1" source="jjvaqmho2UHqBmuWb2lH-19" target="jjvaqmho2UHqBmuWb2lH-22">
          <mxGeometry relative="1" as="geometry" />
        </mxCell>
        <mxCell id="jjvaqmho2UHqBmuWb2lH-19" value="Filter Function&lt;br&gt;(logic)" style="sketch=0;outlineConnect=0;fontColor=#232F3E;gradientColor=none;fillColor=#D45B07;strokeColor=none;dashed=0;verticalLabelPosition=bottom;verticalAlign=top;align=center;html=1;fontSize=12;fontStyle=0;aspect=fixed;pointerEvents=1;shape=mxgraph.aws4.lambda_function;" vertex="1" parent="1">
          <mxGeometry x="520" y="502.5" width="48" height="48" as="geometry" />
        </mxCell>
        <mxCell id="jjvaqmho2UHqBmuWb2lH-22" value="Rule2 Handler" style="sketch=0;outlineConnect=0;fontColor=#232F3E;gradientColor=none;fillColor=#D45B07;strokeColor=none;dashed=0;verticalLabelPosition=bottom;verticalAlign=top;align=center;html=1;fontSize=12;fontStyle=0;aspect=fixed;pointerEvents=1;shape=mxgraph.aws4.lambda_function;" vertex="1" parent="1">
          <mxGeometry x="670" y="580" width="48" height="48" as="geometry" />
        </mxCell>
        <mxCell id="jjvaqmho2UHqBmuWb2lH-23" value="Rule1 Handler" style="sketch=0;outlineConnect=0;fontColor=#232F3E;gradientColor=none;fillColor=#D45B07;strokeColor=none;dashed=0;verticalLabelPosition=bottom;verticalAlign=top;align=center;html=1;fontSize=12;fontStyle=0;aspect=fixed;pointerEvents=1;shape=mxgraph.aws4.lambda_function;" vertex="1" parent="1">
          <mxGeometry x="670" y="420" width="48" height="48" as="geometry" />
        </mxCell>
        <mxCell id="jjvaqmho2UHqBmuWb2lH-26" value="&lt;font style=&quot;font-size: 18px;&quot;&gt;Original&lt;/font&gt;" style="text;html=1;strokeColor=none;fillColor=none;align=center;verticalAlign=middle;whiteSpace=wrap;rounded=0;" vertex="1" parent="1">
          <mxGeometry x="275" y="30" width="60" height="30" as="geometry" />
        </mxCell>
        <mxCell id="jjvaqmho2UHqBmuWb2lH-27" value="&lt;font style=&quot;font-size: 18px;&quot;&gt;Refactored&lt;/font&gt;" style="text;html=1;strokeColor=none;fillColor=none;align=center;verticalAlign=middle;whiteSpace=wrap;rounded=0;" vertex="1" parent="1">
          <mxGeometry x="275" y="380" width="60" height="30" as="geometry" />
        </mxCell>
      </root>
    </mxGraphModel>
  </diagram>
</mxfile>
